Coordinates
version=1
nRows=11
nColumns=63
inDegrees=yes

Units are S.I. units (second, meters, Newtons, ...)
If the header above contains a line with 'inDegrees', this indicates whether rotational values are in degrees (yes) or radians (no).

endheader
time	pelvis_tilt	pelvis_list	pelvis_rotation	pelvis_tx	pelvis_ty	pelvis_tz	hip_flexion_r	hip_adduction_r	hip_rotation_r	knee_angle_r	knee_angle_r_beta	ankle_angle_r	subtalar_angle_r	mtp_angle_r	hip_flexion_l	hip_adduction_l	hip_rotation_l	knee_angle_l	knee_angle_l_beta	ankle_angle_l	subtalar_angle_l	mtp_angle_l	L5_S1_Flex_Ext	L5_S1_Lat_Bending	L5_S1_axial_rotation	L4_L5_Flex_Ext	L4_L5_Lat_Bending	L4_L5_axial_rotation	L3_L4_Flex_Ext	L3_L4_Lat_Bending	L3_L4_axial_rotation	L2_L3_Flex_Ext	L2_L3_Lat_Bending	L2_L3_axial_rotation	L1_L2_Flex_Ext	L1_L2_Lat_Bending	L1_L2_axial_rotation	L1_T12_Flex_Ext	L1_T12_Lat_Bending	L1_T12_axial_rotation	Abs_r3	Abs_r2	Abs_r1	Abs_t1	Abs_t2	neck_flexion	neck_bending	neck_rotation	arm_flex_r	arm_add_r	arm_rot_r	elbow_flex_r	pro_sup_r	wrist_flex_r	wrist_dev_r	arm_flex_l	arm_add_l	arm_rot_l	elbow_flex_l	pro_sup_l	wrist_flex_l	wrist_dev_l
0.000000	1.094432	-4.667670	87.110975	0.365056	0.886359	0.531785	-1.216460	2.409586	15.622066	1.864794	0.032547	32.527147	-14.430982	0.000000	-0.068107	-5.394011	8.446538	1.279989	0.022340	37.713525	-4.873000	0.000000	0.025306	0.114220	0.515589	0.046996	0.151912	0.547814	0.041576	0.277714	0.547814	0.028923	0.277714	0.451141	0.023499	0.232917	0.418916	0.014460	0.176927	0.386692	0.180761	1.292078	2.867553	0.000000	0.000000	26.946069	-4.501451	-10.740626	1.419598	-16.920586	41.239911	72.694141	85.663881	-1.282722	-0.729772	13.357727	-17.883873	60.381483	63.643304	63.856407	7.619546	-0.989846
0.016949	0.986747	-4.504776	86.541065	0.366447	0.886237	0.530802	-1.510571	2.271916	16.193412	1.975097	0.034472	31.941943	-14.795373	0.000000	-0.599823	-5.265985	8.973368	1.145200	0.019988	36.973076	-6.670120	0.000000	0.051407	0.085766	0.661686	0.095468	0.114069	0.703041	0.084457	0.208531	0.703041	0.058753	0.208531	0.578975	0.047737	0.174894	0.537620	0.029374	0.132851	0.496264	0.367196	0.970201	3.680097	0.000000	0.000000	27.045607	-3.843187	-9.911230	4.008586	-15.873857	26.614811	69.478138	88.799867	0.638568	1.451230	15.200574	-15.869878	59.690603	59.263670	62.775169	6.409527	-0.396067
0.033898	0.936770	-4.404512	85.988530	0.367481	0.885820	0.529717	-1.752033	2.170284	16.839772	2.016568	0.035196	31.535843	-15.083965	0.000000	-1.052543	-5.184122	9.410332	1.022724	0.017850	36.414288	-8.252763	0.000000	0.083122	0.072660	0.797432	0.154365	0.096637	0.847272	0.136561	0.176664	0.847272	0.095000	0.176664	0.697753	0.077187	0.148167	0.647914	0.047496	0.112550	0.598074	0.593730	0.821939	4.435080	0.000000	0.000000	27.149905	-3.520291	-9.289755	6.450086	-14.593724	18.682327	65.385999	89.192869	2.106927	2.738724	16.877132	-13.779606	60.358346	54.904807	60.465114	5.226247	0.085079
0.050847	0.937397	-4.359172	85.453993	0.368198	0.885152	0.528563	-1.944914	2.100973	17.546892	1.997879	0.034870	31.289967	-15.303130	0.000000	-1.432420	-5.143127	9.762951	0.912237	0.015922	36.018542	-9.634021	0.000000	0.119105	0.072991	0.923452	0.221191	0.097079	0.981167	0.195678	0.177471	0.981167	0.136126	0.177471	0.808020	0.110601	0.148844	0.750304	0.068057	0.113064	0.692589	0.850758	0.825693	5.135961	0.000000	0.000000	27.257499	-3.489159	-8.850950	8.734106	-13.125424	16.612303	60.576960	87.184949	3.167064	3.239438	18.392483	-11.642374	62.211425	50.604133	57.107908	4.078790	0.461891
0.067797	0.981519	-4.361047	84.938076	0.368637	0.884277	0.527375	-2.093284	2.060266	18.300519	1.927707	0.033645	31.185438	-15.459241	0.000000	-1.745605	-5.137705	10.036747	0.813416	0.014197	35.767219	-10.826984	0.000000	0.158013	0.084852	1.040365	0.293446	0.112853	1.105388	0.259600	0.206309	1.105388	0.180593	0.206309	0.910320	0.146731	0.173030	0.845297	0.090289	0.131436	0.780274	1.128672	0.959864	5.786201	0.000000	0.000000	27.366921	-3.706186	-8.569567	10.850656	-11.514194	19.574583	55.210256	83.118164	3.863690	3.060098	19.751708	-9.487499	65.076554	46.399068	52.885217	2.976239	0.742667
0.084746	1.062030	-4.402429	84.441403	0.368836	0.883238	0.526186	-2.201213	2.044448	19.086397	1.814724	0.031673	31.203376	-15.558673	0.000000	-1.998249	-5.162561	10.237240	0.725937	0.012670	35.641702	-11.844741	0.000000	0.198500	0.106332	1.148796	0.368635	0.141422	1.220596	0.326116	0.258536	1.220596	0.226866	0.258536	1.005197	0.184327	0.216833	0.933397	0.113423	0.164709	0.861597	1.417866	1.202852	6.389260	0.000000	0.000000	27.476708	-4.127766	-8.420355	12.789746	-9.805274	26.739013	49.445120	77.334575	4.241517	2.307430	20.959889	-7.344299	68.780445	42.327031	47.978707	1.927677	0.935704
0.101695	1.171823	-4.475611	83.964597	0.368836	0.882080	0.525030	-2.272768	2.049802	19.890273	1.667605	0.029105	31.324905	-15.607797	0.000000	-2.196504	-5.212399	10.369952	0.649476	0.011335	35.623372	-12.700385	0.000000	0.239221	0.135522	1.249366	0.444258	0.180245	1.327451	0.393017	0.329509	1.327451	0.273406	0.329509	1.093195	0.222141	0.276357	1.015110	0.136691	0.209924	0.937024	1.708733	1.533057	6.948598	0.000000	0.000000	27.585392	-4.710295	-8.378066	14.541385	-8.043899	37.275438	43.440788	70.176239	4.345254	1.088161	22.022108	-5.242091	73.149812	38.425440	42.570044	0.942188	1.049301
0.118644	1.303791	-4.572885	83.508282	0.368675	0.880845	0.523942	-2.312020	2.072610	20.697891	1.495023	0.026093	31.531144	-15.612986	0.000000	-2.346522	-5.281925	10.440403	0.583710	0.010188	35.693610	-13.407005	0.000000	0.278832	0.170513	1.342696	0.517818	0.226783	1.426615	0.458093	0.414586	1.426615	0.318677	0.414586	1.174859	0.258923	0.347711	1.090941	0.159324	0.264125	1.007022	1.991667	1.928880	7.467675	0.000000	0.000000	27.691508	-5.410168	-8.417448	16.095583	-6.275309	50.353701	37.356494	61.985217	4.219612	-0.490981	22.943447	-3.210192	78.011367	34.731715	36.840893	0.028855	1.091756
0.135593	1.450828	-4.686543	83.073080	0.368392	0.879577	0.522954	-2.323038	2.109158	21.494998	1.305653	0.022788	31.803216	-15.580615	0.000000	-2.454454	-5.365844	10.454114	0.528315	0.009221	35.833798	-13.977692	0.000000	0.315986	0.209395	1.429410	0.586818	0.278496	1.518749	0.519134	0.509124	1.518749	0.361141	0.509124	1.250734	0.293425	0.426999	1.161396	0.180555	0.324353	1.072058	2.257059	2.368721	7.949952	0.000000	0.000000	27.793591	-6.183779	-8.513253	17.442350	-4.544741	65.143647	31.351472	53.103567	3.909303	-2.323271	23.728988	-1.277920	83.191824	31.283275	30.972921	-0.803240	1.071367
0.152542	1.605827	-4.808876	82.659614	0.368028	0.878321	0.522102	-2.309890	2.155727	22.267340	1.108169	0.019341	32.122241	-15.517057	0.000000	-2.526451	-5.458860	10.416607	0.482969	0.008429	36.025319	-14.425536	0.000000	0.349341	0.250259	1.510130	0.648760	0.332845	1.604513	0.573932	0.608480	1.604513	0.399261	0.608480	1.321364	0.324398	0.510328	1.226981	0.199613	0.387651	1.132597	2.495305	2.830981	8.398889	0.000000	0.000000	27.890174	-6.987524	-8.640231	18.571695	-2.897432	80.815122	25.584958	43.873348	3.459036	-4.301981	24.383811	0.525409	88.517895	28.117538	25.147793	-1.545013	0.996432
0.169492	1.761681	-4.932178	82.268509	0.367620	0.877119	0.521418	-2.276647	2.208603	23.000661	0.911245	0.015904	32.469343	-15.428683	0.000000	-2.568665	-5.555678	10.333403	0.447347	0.007808	36.249552	-14.763628	0.000000	0.377549	0.291195	1.585477	0.701147	0.387290	1.684569	0.620276	0.708012	1.684569	0.431501	0.708012	1.387292	0.350592	0.593806	1.288200	0.215732	0.451062	1.189108	2.696796	3.294060	8.817946	0.000000	0.000000	27.979792	-7.777797	-8.773132	19.473628	-1.378621	96.537971	20.216185	34.636620	2.913522	-6.320385	24.913000	2.170476	93.816294	25.271925	19.547176	-2.187381	0.875250
